%TF.GenerationSoftware,KiCad,Pcbnew,9.0.6*%
%TF.CreationDate,2025-11-15T16:36:52+01:00*%
%TF.ProjectId,mailbox_esp32_cam_v2_0,6d61696c-626f-4785-9f65-737033325f63,rev?*%
%TF.SameCoordinates,Original*%
%TF.FileFunction,Soldermask,Bot*%
%TF.FilePolarity,Negative*%
%FSLAX46Y46*%
G04 Gerber Fmt 4.6, Leading zero omitted, Abs format (unit mm)*
G04 Created by KiCad (PCBNEW 9.0.6) date 2025-11-15 16:36:52*
%MOMM*%
%LPD*%
G01*
G04 APERTURE LIST*
G04 Aperture macros list*
%AMRoundRect*
0 Rectangle with rounded corners*
0 $1 Rounding radius*
0 $2 $3 $4 $5 $6 $7 $8 $9 X,Y pos of 4 corners*
0 Add a 4 corners polygon primitive as box body*
4,1,4,$2,$3,$4,$5,$6,$7,$8,$9,$2,$3,0*
0 Add four circle primitives for the rounded corners*
1,1,$1+$1,$2,$3*
1,1,$1+$1,$4,$5*
1,1,$1+$1,$6,$7*
1,1,$1+$1,$8,$9*
0 Add four rect primitives between the rounded corners*
20,1,$1+$1,$2,$3,$4,$5,0*
20,1,$1+$1,$4,$5,$6,$7,0*
20,1,$1+$1,$6,$7,$8,$9,0*
20,1,$1+$1,$8,$9,$2,$3,0*%
G04 Aperture macros list end*
%ADD10C,3.200000*%
%ADD11O,1.200000X1.600000*%
%ADD12O,1.200000X1.200000*%
%ADD13R,2.400000X2.400000*%
%ADD14O,2.400000X2.400000*%
%ADD15C,3.000000*%
%ADD16C,2.400000*%
%ADD17C,1.600000*%
%ADD18R,2.600000X2.600000*%
%ADD19C,2.600000*%
%ADD20R,1.905000X2.000000*%
%ADD21O,1.905000X2.000000*%
%ADD22O,1.600000X1.600000*%
%ADD23RoundRect,0.250000X-1.250000X-0.550000X1.250000X-0.550000X1.250000X0.550000X-1.250000X0.550000X0*%
%ADD24R,1.700000X1.700000*%
%ADD25O,1.700000X1.700000*%
%ADD26C,1.700000*%
%ADD27RoundRect,0.250000X0.550000X-1.250000X0.550000X1.250000X-0.550000X1.250000X-0.550000X-1.250000X0*%
G04 APERTURE END LIST*
D10*
%TO.C,H1*%
X25400000Y-128270000D03*
%TD*%
D11*
%TO.C,Q2*%
X26670000Y-82550000D03*
D12*
X25400000Y-83820000D03*
X26670000Y-85090000D03*
%TD*%
D10*
%TO.C,H3*%
X77470000Y-34290000D03*
%TD*%
D13*
%TO.C,D5*%
X40640000Y-106680000D03*
D14*
X27940000Y-106680000D03*
%TD*%
D10*
%TO.C,H4*%
X77470000Y-128270000D03*
%TD*%
D15*
%TO.C,F1*%
X46860000Y-116840000D03*
X24260000Y-116840000D03*
%TD*%
D13*
%TO.C,C1*%
X60880000Y-109220000D03*
D16*
X55880000Y-109220000D03*
%TD*%
D17*
%TO.C,C3*%
X52150000Y-120650000D03*
X57150000Y-120650000D03*
%TD*%
D18*
%TO.C,J3*%
X50720000Y-39065000D03*
D19*
X45720000Y-39065000D03*
%TD*%
D20*
%TO.C,U2*%
X60960000Y-127000000D03*
D21*
X58420000Y-127000000D03*
X55880000Y-127000000D03*
%TD*%
D11*
%TO.C,Q1*%
X35560000Y-82550000D03*
D12*
X34290000Y-83820000D03*
X35560000Y-85090000D03*
%TD*%
D10*
%TO.C,H2*%
X25400000Y-34290000D03*
%TD*%
D18*
%TO.C,J1*%
X62150000Y-39065000D03*
D19*
X57150000Y-39065000D03*
%TD*%
D17*
%TO.C,C2*%
X66040000Y-120650000D03*
X61040000Y-120650000D03*
%TD*%
%TO.C,R4*%
X25400000Y-76200000D03*
D22*
X35560000Y-76200000D03*
%TD*%
D18*
%TO.C,J2*%
X39290000Y-39065000D03*
D19*
X34290000Y-39065000D03*
%TD*%
D23*
%TO.C,J6*%
X27440000Y-95060000D03*
X27440000Y-99060000D03*
%TD*%
D24*
%TO.C,J4*%
X32340000Y-64770000D03*
D25*
X32340000Y-62230000D03*
X32340000Y-59690000D03*
X32340000Y-57150000D03*
%TD*%
D26*
%TO.C,U1*%
X64770000Y-72390000D03*
X64770000Y-69850000D03*
X64770000Y-67310000D03*
X64770000Y-64770000D03*
X64770000Y-62230000D03*
X64770000Y-59690000D03*
X64770000Y-57150000D03*
D24*
X64770000Y-54610000D03*
X41910000Y-54610000D03*
D26*
X41910000Y-57150000D03*
X41910000Y-59690000D03*
X41910000Y-62230000D03*
X41910000Y-64770000D03*
X41910000Y-67310000D03*
X41910000Y-69850000D03*
X41910000Y-72390000D03*
%TD*%
D27*
%TO.C,J5*%
X72390000Y-120420000D03*
X76390000Y-120420000D03*
%TD*%
M02*
