M48
; DRILL file {KiCad 9.0.6} date 2025-11-15T16:36:55+0100
; FORMAT={-:-/ absolute / inch / decimal}
; #@! TF.CreationDate,2025-11-15T16:36:55+01:00
; #@! TF.GenerationSoftware,Kicad,Pcbnew,9.0.6
; #@! TF.FileFunction,Plated,1,2,PTH
FMAT,2
INCH
; #@! TA.AperFunction,Plated,PTH,ViaDrill
T1C0.0118
; #@! TA.AperFunction,Plated,PTH,ComponentDrill
T2C0.0276
; #@! TA.AperFunction,Plated,PTH,ComponentDrill
T3C0.0315
; #@! TA.AperFunction,Plated,PTH,ComponentDrill
T4C0.0394
; #@! TA.AperFunction,Plated,PTH,ComponentDrill
T5C0.0433
; #@! TA.AperFunction,Plated,PTH,ComponentDrill
T6C0.0472
; #@! TA.AperFunction,Plated,PTH,ComponentDrill
T7C0.0512
; #@! TA.AperFunction,Plated,PTH,ComponentDrill
T8C0.0591
%
G90
G05
T1
X2.05Y-2.15
X2.2Y-2.25
X2.2Y-2.45
X2.2Y-2.85
T2
X1.0Y-3.3
X1.05Y-3.25
X1.05Y-3.35
X1.35Y-3.3
X1.4Y-3.25
X1.4Y-3.35
T3
X1.0Y-3.0
X1.4Y-3.0
X2.0531Y-4.75
X2.25Y-4.75
X2.4031Y-4.75
X2.6Y-4.75
T4
X1.2732Y-2.25
X1.2732Y-2.35
X1.2732Y-2.45
X1.2732Y-2.55
X1.65Y-2.15
X1.65Y-2.25
X1.65Y-2.35
X1.65Y-2.45
X1.65Y-2.55
X1.65Y-2.65
X1.65Y-2.75
X1.65Y-2.85
X2.55Y-2.15
X2.55Y-2.25
X2.55Y-2.35
X2.55Y-2.45
X2.55Y-2.55
X2.55Y-2.65
X2.55Y-2.75
X2.55Y-2.85
T5
X2.2Y-5.0
X2.3Y-5.0
X2.4Y-5.0
T6
X1.1Y-4.2
X1.6Y-4.2
X2.2Y-4.3
X2.3969Y-4.3
T7
X1.35Y-1.538
X1.5469Y-1.538
X1.8Y-1.538
X1.9969Y-1.538
X2.25Y-1.538
X2.4469Y-1.538
T8
X0.9551Y-4.6
X1.8449Y-4.6
M30
