%TF.GenerationSoftware,KiCad,Pcbnew,9.0.6*%
%TF.CreationDate,2025-11-15T16:36:52+01:00*%
%TF.ProjectId,mailbox_esp32_cam_v2_0,6d61696c-626f-4785-9f65-737033325f63,rev?*%
%TF.SameCoordinates,Original*%
%TF.FileFunction,Copper,L2,Bot*%
%TF.FilePolarity,Positive*%
%FSLAX46Y46*%
G04 Gerber Fmt 4.6, Leading zero omitted, Abs format (unit mm)*
G04 Created by KiCad (PCBNEW 9.0.6) date 2025-11-15 16:36:52*
%MOMM*%
%LPD*%
G01*
G04 APERTURE LIST*
G04 Aperture macros list*
%AMRoundRect*
0 Rectangle with rounded corners*
0 $1 Rounding radius*
0 $2 $3 $4 $5 $6 $7 $8 $9 X,Y pos of 4 corners*
0 Add a 4 corners polygon primitive as box body*
4,1,4,$2,$3,$4,$5,$6,$7,$8,$9,$2,$3,0*
0 Add four circle primitives for the rounded corners*
1,1,$1+$1,$2,$3*
1,1,$1+$1,$4,$5*
1,1,$1+$1,$6,$7*
1,1,$1+$1,$8,$9*
0 Add four rect primitives between the rounded corners*
20,1,$1+$1,$2,$3,$4,$5,0*
20,1,$1+$1,$4,$5,$6,$7,0*
20,1,$1+$1,$6,$7,$8,$9,0*
20,1,$1+$1,$8,$9,$2,$3,0*%
G04 Aperture macros list end*
%ADD10C,0.300000*%
%TA.AperFunction,NonConductor*%
%ADD11C,0.300000*%
%TD*%
%ADD12C,0.100000*%
%TA.AperFunction,NonConductor*%
%ADD13C,0.100000*%
%TD*%
%ADD14C,0.150000*%
%TA.AperFunction,NonConductor*%
%ADD15C,0.150000*%
%TD*%
%TA.AperFunction,ComponentPad*%
%ADD16O,1.200000X1.600000*%
%TD*%
%TA.AperFunction,ComponentPad*%
%ADD17O,1.200000X1.200000*%
%TD*%
%TA.AperFunction,ComponentPad*%
%ADD18R,2.400000X2.400000*%
%TD*%
%TA.AperFunction,ComponentPad*%
%ADD19O,2.400000X2.400000*%
%TD*%
%TA.AperFunction,ComponentPad*%
%ADD20C,3.000000*%
%TD*%
%TA.AperFunction,ComponentPad*%
%ADD21C,2.400000*%
%TD*%
%TA.AperFunction,ComponentPad*%
%ADD22C,1.600000*%
%TD*%
%TA.AperFunction,ComponentPad*%
%ADD23R,2.600000X2.600000*%
%TD*%
%TA.AperFunction,ComponentPad*%
%ADD24C,2.600000*%
%TD*%
%TA.AperFunction,ComponentPad*%
%ADD25R,1.905000X2.000000*%
%TD*%
%TA.AperFunction,ComponentPad*%
%ADD26O,1.905000X2.000000*%
%TD*%
%TA.AperFunction,ComponentPad*%
%ADD27O,1.600000X1.600000*%
%TD*%
%TA.AperFunction,SMDPad,CuDef*%
%ADD28RoundRect,0.250000X-1.250000X-0.550000X1.250000X-0.550000X1.250000X0.550000X-1.250000X0.550000X0*%
%TD*%
%TA.AperFunction,ComponentPad*%
%ADD29R,1.700000X1.700000*%
%TD*%
%TA.AperFunction,ComponentPad*%
%ADD30O,1.700000X1.700000*%
%TD*%
%TA.AperFunction,ComponentPad*%
%ADD31C,1.700000*%
%TD*%
%TA.AperFunction,SMDPad,CuDef*%
%ADD32RoundRect,0.250000X0.550000X-1.250000X0.550000X1.250000X-0.550000X1.250000X-0.550000X-1.250000X0*%
%TD*%
%TA.AperFunction,ViaPad*%
%ADD33C,0.600000*%
%TD*%
%TA.AperFunction,Conductor*%
%ADD34C,1.000000*%
%TD*%
%TA.AperFunction,Conductor*%
%ADD35C,2.000000*%
%TD*%
%TA.AperFunction,Conductor*%
%ADD36C,0.200000*%
%TD*%
%TA.AperFunction,Conductor*%
%ADD37C,0.500000*%
%TD*%
G04 APERTURE END LIST*
D10*
D11*
X27440600Y-102315489D02*
X27440600Y-101172632D01*
D10*
D11*
X70349400Y-117394510D02*
X70349400Y-118537368D01*
X70920828Y-117965939D02*
X69777971Y-117965939D01*
D10*
D11*
X29280225Y-90369171D02*
X28423082Y-90369171D01*
X28851653Y-90369171D02*
X28851653Y-91869171D01*
X28851653Y-91869171D02*
X28708796Y-91654885D01*
X28708796Y-91654885D02*
X28565939Y-91512028D01*
X28565939Y-91512028D02*
X28423082Y-91440600D01*
X29851653Y-91726314D02*
X29923081Y-91797742D01*
X29923081Y-91797742D02*
X30065939Y-91869171D01*
X30065939Y-91869171D02*
X30423081Y-91869171D01*
X30423081Y-91869171D02*
X30565939Y-91797742D01*
X30565939Y-91797742D02*
X30637367Y-91726314D01*
X30637367Y-91726314D02*
X30708796Y-91583457D01*
X30708796Y-91583457D02*
X30708796Y-91440600D01*
X30708796Y-91440600D02*
X30637367Y-91226314D01*
X30637367Y-91226314D02*
X29780224Y-90369171D01*
X29780224Y-90369171D02*
X30708796Y-90369171D01*
X31137367Y-91869171D02*
X31637367Y-90369171D01*
X31637367Y-90369171D02*
X32137367Y-91869171D01*
X34494509Y-90369171D02*
X33780223Y-90369171D01*
X33780223Y-90369171D02*
X33780223Y-91869171D01*
X34994509Y-91154885D02*
X35494509Y-91154885D01*
X35708795Y-90369171D02*
X34994509Y-90369171D01*
X34994509Y-90369171D02*
X34994509Y-91869171D01*
X34994509Y-91869171D02*
X35708795Y-91869171D01*
X36351652Y-90369171D02*
X36351652Y-91869171D01*
X36351652Y-91869171D02*
X36708795Y-91869171D01*
X36708795Y-91869171D02*
X36923081Y-91797742D01*
X36923081Y-91797742D02*
X37065938Y-91654885D01*
X37065938Y-91654885D02*
X37137367Y-91512028D01*
X37137367Y-91512028D02*
X37208795Y-91226314D01*
X37208795Y-91226314D02*
X37208795Y-91012028D01*
X37208795Y-91012028D02*
X37137367Y-90726314D01*
X37137367Y-90726314D02*
X37065938Y-90583457D01*
X37065938Y-90583457D02*
X36923081Y-90440600D01*
X36923081Y-90440600D02*
X36708795Y-90369171D01*
X36708795Y-90369171D02*
X36351652Y-90369171D01*
X38923081Y-90440600D02*
X39065938Y-90369171D01*
X39065938Y-90369171D02*
X39351652Y-90369171D01*
X39351652Y-90369171D02*
X39494509Y-90440600D01*
X39494509Y-90440600D02*
X39565938Y-90583457D01*
X39565938Y-90583457D02*
X39565938Y-90654885D01*
X39565938Y-90654885D02*
X39494509Y-90797742D01*
X39494509Y-90797742D02*
X39351652Y-90869171D01*
X39351652Y-90869171D02*
X39137367Y-90869171D01*
X39137367Y-90869171D02*
X38994509Y-90940600D01*
X38994509Y-90940600D02*
X38923081Y-91083457D01*
X38923081Y-91083457D02*
X38923081Y-91154885D01*
X38923081Y-91154885D02*
X38994509Y-91297742D01*
X38994509Y-91297742D02*
X39137367Y-91369171D01*
X39137367Y-91369171D02*
X39351652Y-91369171D01*
X39351652Y-91369171D02*
X39494509Y-91297742D01*
X39994510Y-91369171D02*
X40565938Y-91369171D01*
X40208795Y-91869171D02*
X40208795Y-90583457D01*
X40208795Y-90583457D02*
X40280224Y-90440600D01*
X40280224Y-90440600D02*
X40423081Y-90369171D01*
X40423081Y-90369171D02*
X40565938Y-90369171D01*
X41065938Y-90369171D02*
X41065938Y-91369171D01*
X41065938Y-91083457D02*
X41137367Y-91226314D01*
X41137367Y-91226314D02*
X41208796Y-91297742D01*
X41208796Y-91297742D02*
X41351653Y-91369171D01*
X41351653Y-91369171D02*
X41494510Y-91369171D01*
X41994509Y-90369171D02*
X41994509Y-91369171D01*
X41994509Y-91869171D02*
X41923081Y-91797742D01*
X41923081Y-91797742D02*
X41994509Y-91726314D01*
X41994509Y-91726314D02*
X42065938Y-91797742D01*
X42065938Y-91797742D02*
X41994509Y-91869171D01*
X41994509Y-91869171D02*
X41994509Y-91726314D01*
X42708795Y-91369171D02*
X42708795Y-89869171D01*
X42708795Y-91297742D02*
X42851653Y-91369171D01*
X42851653Y-91369171D02*
X43137367Y-91369171D01*
X43137367Y-91369171D02*
X43280224Y-91297742D01*
X43280224Y-91297742D02*
X43351653Y-91226314D01*
X43351653Y-91226314D02*
X43423081Y-91083457D01*
X43423081Y-91083457D02*
X43423081Y-90654885D01*
X43423081Y-90654885D02*
X43351653Y-90512028D01*
X43351653Y-90512028D02*
X43280224Y-90440600D01*
X43280224Y-90440600D02*
X43137367Y-90369171D01*
X43137367Y-90369171D02*
X42851653Y-90369171D01*
X42851653Y-90369171D02*
X42708795Y-90440600D01*
D10*
D11*
X27169400Y-91994510D02*
X27169400Y-93137368D01*
X27740828Y-92565939D02*
X26597971Y-92565939D01*
D10*
D11*
X78024510Y-117610600D02*
X79167368Y-117610600D01*
D10*
D11*
X22680996Y-42464510D02*
X23895282Y-42464510D01*
X23895282Y-42464510D02*
X24038139Y-42535939D01*
X24038139Y-42535939D02*
X24109568Y-42607368D01*
X24109568Y-42607368D02*
X24180996Y-42750225D01*
X24180996Y-42750225D02*
X24180996Y-43035939D01*
X24180996Y-43035939D02*
X24109568Y-43178796D01*
X24109568Y-43178796D02*
X24038139Y-43250225D01*
X24038139Y-43250225D02*
X23895282Y-43321653D01*
X23895282Y-43321653D02*
X22680996Y-43321653D01*
X24180996Y-44250225D02*
X24109568Y-44107368D01*
X24109568Y-44107368D02*
X23966710Y-44035939D01*
X23966710Y-44035939D02*
X22680996Y-44035939D01*
X23180996Y-44607368D02*
X23180996Y-45178796D01*
X22680996Y-44821653D02*
X23966710Y-44821653D01*
X23966710Y-44821653D02*
X24109568Y-44893082D01*
X24109568Y-44893082D02*
X24180996Y-45035939D01*
X24180996Y-45035939D02*
X24180996Y-45178796D01*
X24180996Y-45678796D02*
X23180996Y-45678796D01*
X23466710Y-45678796D02*
X23323853Y-45750225D01*
X23323853Y-45750225D02*
X23252425Y-45821654D01*
X23252425Y-45821654D02*
X23180996Y-45964511D01*
X23180996Y-45964511D02*
X23180996Y-46107368D01*
X24180996Y-47250225D02*
X23395282Y-47250225D01*
X23395282Y-47250225D02*
X23252425Y-47178796D01*
X23252425Y-47178796D02*
X23180996Y-47035939D01*
X23180996Y-47035939D02*
X23180996Y-46750225D01*
X23180996Y-46750225D02*
X23252425Y-46607367D01*
X24109568Y-47250225D02*
X24180996Y-47107367D01*
X24180996Y-47107367D02*
X24180996Y-46750225D01*
X24180996Y-46750225D02*
X24109568Y-46607367D01*
X24109568Y-46607367D02*
X23966710Y-46535939D01*
X23966710Y-46535939D02*
X23823853Y-46535939D01*
X23823853Y-46535939D02*
X23680996Y-46607367D01*
X23680996Y-46607367D02*
X23609568Y-46750225D01*
X23609568Y-46750225D02*
X23609568Y-47107367D01*
X23609568Y-47107367D02*
X23538139Y-47250225D01*
X24109568Y-47893082D02*
X24180996Y-48035939D01*
X24180996Y-48035939D02*
X24180996Y-48321653D01*
X24180996Y-48321653D02*
X24109568Y-48464510D01*
X24109568Y-48464510D02*
X23966710Y-48535939D01*
X23966710Y-48535939D02*
X23895282Y-48535939D01*
X23895282Y-48535939D02*
X23752425Y-48464510D01*
X23752425Y-48464510D02*
X23680996Y-48321653D01*
X23680996Y-48321653D02*
X23680996Y-48107368D01*
X23680996Y-48107368D02*
X23609568Y-47964510D01*
X23609568Y-47964510D02*
X23466710Y-47893082D01*
X23466710Y-47893082D02*
X23395282Y-47893082D01*
X23395282Y-47893082D02*
X23252425Y-47964510D01*
X23252425Y-47964510D02*
X23180996Y-48107368D01*
X23180996Y-48107368D02*
X23180996Y-48321653D01*
X23180996Y-48321653D02*
X23252425Y-48464510D01*
X24180996Y-49393082D02*
X24109568Y-49250225D01*
X24109568Y-49250225D02*
X24038139Y-49178796D01*
X24038139Y-49178796D02*
X23895282Y-49107368D01*
X23895282Y-49107368D02*
X23466710Y-49107368D01*
X23466710Y-49107368D02*
X23323853Y-49178796D01*
X23323853Y-49178796D02*
X23252425Y-49250225D01*
X23252425Y-49250225D02*
X23180996Y-49393082D01*
X23180996Y-49393082D02*
X23180996Y-49607368D01*
X23180996Y-49607368D02*
X23252425Y-49750225D01*
X23252425Y-49750225D02*
X23323853Y-49821654D01*
X23323853Y-49821654D02*
X23466710Y-49893082D01*
X23466710Y-49893082D02*
X23895282Y-49893082D01*
X23895282Y-49893082D02*
X24038139Y-49821654D01*
X24038139Y-49821654D02*
X24109568Y-49750225D01*
X24109568Y-49750225D02*
X24180996Y-49607368D01*
X24180996Y-49607368D02*
X24180996Y-49393082D01*
X23180996Y-50535939D02*
X24180996Y-50535939D01*
X23323853Y-50535939D02*
X23252425Y-50607368D01*
X23252425Y-50607368D02*
X23180996Y-50750225D01*
X23180996Y-50750225D02*
X23180996Y-50964511D01*
X23180996Y-50964511D02*
X23252425Y-51107368D01*
X23252425Y-51107368D02*
X23395282Y-51178797D01*
X23395282Y-51178797D02*
X24180996Y-51178797D01*
X24180996Y-51893082D02*
X23180996Y-51893082D01*
X22680996Y-51893082D02*
X22752425Y-51821654D01*
X22752425Y-51821654D02*
X22823853Y-51893082D01*
X22823853Y-51893082D02*
X22752425Y-51964511D01*
X22752425Y-51964511D02*
X22680996Y-51893082D01*
X22680996Y-51893082D02*
X22823853Y-51893082D01*
X24109568Y-53250226D02*
X24180996Y-53107368D01*
X24180996Y-53107368D02*
X24180996Y-52821654D01*
X24180996Y-52821654D02*
X24109568Y-52678797D01*
X24109568Y-52678797D02*
X24038139Y-52607368D01*
X24038139Y-52607368D02*
X23895282Y-52535940D01*
X23895282Y-52535940D02*
X23466710Y-52535940D01*
X23466710Y-52535940D02*
X23323853Y-52607368D01*
X23323853Y-52607368D02*
X23252425Y-52678797D01*
X23252425Y-52678797D02*
X23180996Y-52821654D01*
X23180996Y-52821654D02*
X23180996Y-53107368D01*
X23180996Y-53107368D02*
X23252425Y-53250226D01*
X26524484Y-42393082D02*
X26595912Y-42535939D01*
X26595912Y-42535939D02*
X26595912Y-42821653D01*
X26595912Y-42821653D02*
X26524484Y-42964510D01*
X26524484Y-42964510D02*
X26381626Y-43035939D01*
X26381626Y-43035939D02*
X26310198Y-43035939D01*
X26310198Y-43035939D02*
X26167341Y-42964510D01*
X26167341Y-42964510D02*
X26095912Y-42821653D01*
X26095912Y-42821653D02*
X26095912Y-42607368D01*
X26095912Y-42607368D02*
X26024484Y-42464510D01*
X26024484Y-42464510D02*
X25881626Y-42393082D01*
X25881626Y-42393082D02*
X25810198Y-42393082D01*
X25810198Y-42393082D02*
X25667341Y-42464510D01*
X25667341Y-42464510D02*
X25595912Y-42607368D01*
X25595912Y-42607368D02*
X25595912Y-42821653D01*
X25595912Y-42821653D02*
X25667341Y-42964510D01*
X26524484Y-44250225D02*
X26595912Y-44107368D01*
X26595912Y-44107368D02*
X26595912Y-43821654D01*
X26595912Y-43821654D02*
X26524484Y-43678796D01*
X26524484Y-43678796D02*
X26381626Y-43607368D01*
X26381626Y-43607368D02*
X25810198Y-43607368D01*
X25810198Y-43607368D02*
X25667341Y-43678796D01*
X25667341Y-43678796D02*
X25595912Y-43821654D01*
X25595912Y-43821654D02*
X25595912Y-44107368D01*
X25595912Y-44107368D02*
X25667341Y-44250225D01*
X25667341Y-44250225D02*
X25810198Y-44321654D01*
X25810198Y-44321654D02*
X25953055Y-44321654D01*
X25953055Y-44321654D02*
X26095912Y-43607368D01*
X25595912Y-44964510D02*
X26595912Y-44964510D01*
X25738769Y-44964510D02*
X25667341Y-45035939D01*
X25667341Y-45035939D02*
X25595912Y-45178796D01*
X25595912Y-45178796D02*
X25595912Y-45393082D01*
X25595912Y-45393082D02*
X25667341Y-45535939D01*
X25667341Y-45535939D02*
X25810198Y-45607368D01*
X25810198Y-45607368D02*
X26595912Y-45607368D01*
X26524484Y-46250225D02*
X26595912Y-46393082D01*
X26595912Y-46393082D02*
X26595912Y-46678796D01*
X26595912Y-46678796D02*
X26524484Y-46821653D01*
X26524484Y-46821653D02*
X26381626Y-46893082D01*
X26381626Y-46893082D02*
X26310198Y-46893082D01*
X26310198Y-46893082D02*
X26167341Y-46821653D01*
X26167341Y-46821653D02*
X26095912Y-46678796D01*
X26095912Y-46678796D02*
X26095912Y-46464511D01*
X26095912Y-46464511D02*
X26024484Y-46321653D01*
X26024484Y-46321653D02*
X25881626Y-46250225D01*
X25881626Y-46250225D02*
X25810198Y-46250225D01*
X25810198Y-46250225D02*
X25667341Y-46321653D01*
X25667341Y-46321653D02*
X25595912Y-46464511D01*
X25595912Y-46464511D02*
X25595912Y-46678796D01*
X25595912Y-46678796D02*
X25667341Y-46821653D01*
X26595912Y-47750225D02*
X26524484Y-47607368D01*
X26524484Y-47607368D02*
X26453055Y-47535939D01*
X26453055Y-47535939D02*
X26310198Y-47464511D01*
X26310198Y-47464511D02*
X25881626Y-47464511D01*
X25881626Y-47464511D02*
X25738769Y-47535939D01*
X25738769Y-47535939D02*
X25667341Y-47607368D01*
X25667341Y-47607368D02*
X25595912Y-47750225D01*
X25595912Y-47750225D02*
X25595912Y-47964511D01*
X25595912Y-47964511D02*
X25667341Y-48107368D01*
X25667341Y-48107368D02*
X25738769Y-48178797D01*
X25738769Y-48178797D02*
X25881626Y-48250225D01*
X25881626Y-48250225D02*
X26310198Y-48250225D01*
X26310198Y-48250225D02*
X26453055Y-48178797D01*
X26453055Y-48178797D02*
X26524484Y-48107368D01*
X26524484Y-48107368D02*
X26595912Y-47964511D01*
X26595912Y-47964511D02*
X26595912Y-47750225D01*
X26595912Y-48893082D02*
X25595912Y-48893082D01*
X25881626Y-48893082D02*
X25738769Y-48964511D01*
X25738769Y-48964511D02*
X25667341Y-49035940D01*
X25667341Y-49035940D02*
X25595912Y-49178797D01*
X25595912Y-49178797D02*
X25595912Y-49321654D01*
X29010828Y-42464510D02*
X28010828Y-42464510D01*
X28153685Y-42464510D02*
X28082257Y-42535939D01*
X28082257Y-42535939D02*
X28010828Y-42678796D01*
X28010828Y-42678796D02*
X28010828Y-42893082D01*
X28010828Y-42893082D02*
X28082257Y-43035939D01*
X28082257Y-43035939D02*
X28225114Y-43107368D01*
X28225114Y-43107368D02*
X29010828Y-43107368D01*
X28225114Y-43107368D02*
X28082257Y-43178796D01*
X28082257Y-43178796D02*
X28010828Y-43321653D01*
X28010828Y-43321653D02*
X28010828Y-43535939D01*
X28010828Y-43535939D02*
X28082257Y-43678796D01*
X28082257Y-43678796D02*
X28225114Y-43750225D01*
X28225114Y-43750225D02*
X29010828Y-43750225D01*
X29010828Y-44678796D02*
X28939400Y-44535939D01*
X28939400Y-44535939D02*
X28867971Y-44464510D01*
X28867971Y-44464510D02*
X28725114Y-44393082D01*
X28725114Y-44393082D02*
X28296542Y-44393082D01*
X28296542Y-44393082D02*
X28153685Y-44464510D01*
X28153685Y-44464510D02*
X28082257Y-44535939D01*
X28082257Y-44535939D02*
X28010828Y-44678796D01*
X28010828Y-44678796D02*
X28010828Y-44893082D01*
X28010828Y-44893082D02*
X28082257Y-45035939D01*
X28082257Y-45035939D02*
X28153685Y-45107368D01*
X28153685Y-45107368D02*
X28296542Y-45178796D01*
X28296542Y-45178796D02*
X28725114Y-45178796D01*
X28725114Y-45178796D02*
X28867971Y-45107368D01*
X28867971Y-45107368D02*
X28939400Y-45035939D01*
X28939400Y-45035939D02*
X29010828Y-44893082D01*
X29010828Y-44893082D02*
X29010828Y-44678796D01*
X29010828Y-46464511D02*
X27510828Y-46464511D01*
X28939400Y-46464511D02*
X29010828Y-46321653D01*
X29010828Y-46321653D02*
X29010828Y-46035939D01*
X29010828Y-46035939D02*
X28939400Y-45893082D01*
X28939400Y-45893082D02*
X28867971Y-45821653D01*
X28867971Y-45821653D02*
X28725114Y-45750225D01*
X28725114Y-45750225D02*
X28296542Y-45750225D01*
X28296542Y-45750225D02*
X28153685Y-45821653D01*
X28153685Y-45821653D02*
X28082257Y-45893082D01*
X28082257Y-45893082D02*
X28010828Y-46035939D01*
X28010828Y-46035939D02*
X28010828Y-46321653D01*
X28010828Y-46321653D02*
X28082257Y-46464511D01*
X28010828Y-47821654D02*
X29010828Y-47821654D01*
X28010828Y-47178796D02*
X28796542Y-47178796D01*
X28796542Y-47178796D02*
X28939400Y-47250225D01*
X28939400Y-47250225D02*
X29010828Y-47393082D01*
X29010828Y-47393082D02*
X29010828Y-47607368D01*
X29010828Y-47607368D02*
X28939400Y-47750225D01*
X28939400Y-47750225D02*
X28867971Y-47821654D01*
X29010828Y-48750225D02*
X28939400Y-48607368D01*
X28939400Y-48607368D02*
X28796542Y-48535939D01*
X28796542Y-48535939D02*
X27510828Y-48535939D01*
X28939400Y-49893082D02*
X29010828Y-49750225D01*
X29010828Y-49750225D02*
X29010828Y-49464511D01*
X29010828Y-49464511D02*
X28939400Y-49321653D01*
X28939400Y-49321653D02*
X28796542Y-49250225D01*
X28796542Y-49250225D02*
X28225114Y-49250225D01*
X28225114Y-49250225D02*
X28082257Y-49321653D01*
X28082257Y-49321653D02*
X28010828Y-49464511D01*
X28010828Y-49464511D02*
X28010828Y-49750225D01*
X28010828Y-49750225D02*
X28082257Y-49893082D01*
X28082257Y-49893082D02*
X28225114Y-49964511D01*
X28225114Y-49964511D02*
X28367971Y-49964511D01*
X28367971Y-49964511D02*
X28510828Y-49250225D01*
D10*
D11*
X73859171Y-112959774D02*
X73859171Y-113816917D01*
X73859171Y-113388346D02*
X75359171Y-113388346D01*
X75359171Y-113388346D02*
X75144885Y-113531203D01*
X75144885Y-113531203D02*
X75002028Y-113674060D01*
X75002028Y-113674060D02*
X74930600Y-113816917D01*
X75216314Y-112388346D02*
X75287742Y-112316918D01*
X75287742Y-112316918D02*
X75359171Y-112174061D01*
X75359171Y-112174061D02*
X75359171Y-111816918D01*
X75359171Y-111816918D02*
X75287742Y-111674061D01*
X75287742Y-111674061D02*
X75216314Y-111602632D01*
X75216314Y-111602632D02*
X75073457Y-111531203D01*
X75073457Y-111531203D02*
X74930600Y-111531203D01*
X74930600Y-111531203D02*
X74716314Y-111602632D01*
X74716314Y-111602632D02*
X73859171Y-112459775D01*
X73859171Y-112459775D02*
X73859171Y-111531203D01*
X75359171Y-111102632D02*
X73859171Y-110602632D01*
X73859171Y-110602632D02*
X75359171Y-110102632D01*
X73859171Y-107745490D02*
X73859171Y-108459776D01*
X73859171Y-108459776D02*
X75359171Y-108459776D01*
X74644885Y-107245490D02*
X74644885Y-106745490D01*
X73859171Y-106531204D02*
X73859171Y-107245490D01*
X73859171Y-107245490D02*
X75359171Y-107245490D01*
X75359171Y-107245490D02*
X75359171Y-106531204D01*
X73859171Y-105888347D02*
X75359171Y-105888347D01*
X75359171Y-105888347D02*
X75359171Y-105531204D01*
X75359171Y-105531204D02*
X75287742Y-105316918D01*
X75287742Y-105316918D02*
X75144885Y-105174061D01*
X75144885Y-105174061D02*
X75002028Y-105102632D01*
X75002028Y-105102632D02*
X74716314Y-105031204D01*
X74716314Y-105031204D02*
X74502028Y-105031204D01*
X74502028Y-105031204D02*
X74216314Y-105102632D01*
X74216314Y-105102632D02*
X74073457Y-105174061D01*
X74073457Y-105174061D02*
X73930600Y-105316918D01*
X73930600Y-105316918D02*
X73859171Y-105531204D01*
X73859171Y-105531204D02*
X73859171Y-105888347D01*
X73930600Y-103316918D02*
X73859171Y-103174061D01*
X73859171Y-103174061D02*
X73859171Y-102888347D01*
X73859171Y-102888347D02*
X73930600Y-102745490D01*
X73930600Y-102745490D02*
X74073457Y-102674061D01*
X74073457Y-102674061D02*
X74144885Y-102674061D01*
X74144885Y-102674061D02*
X74287742Y-102745490D01*
X74287742Y-102745490D02*
X74359171Y-102888347D01*
X74359171Y-102888347D02*
X74359171Y-103102633D01*
X74359171Y-103102633D02*
X74430600Y-103245490D01*
X74430600Y-103245490D02*
X74573457Y-103316918D01*
X74573457Y-103316918D02*
X74644885Y-103316918D01*
X74644885Y-103316918D02*
X74787742Y-103245490D01*
X74787742Y-103245490D02*
X74859171Y-103102633D01*
X74859171Y-103102633D02*
X74859171Y-102888347D01*
X74859171Y-102888347D02*
X74787742Y-102745490D01*
X74859171Y-102245489D02*
X74859171Y-101674061D01*
X75359171Y-102031204D02*
X74073457Y-102031204D01*
X74073457Y-102031204D02*
X73930600Y-101959775D01*
X73930600Y-101959775D02*
X73859171Y-101816918D01*
X73859171Y-101816918D02*
X73859171Y-101674061D01*
X73859171Y-101174061D02*
X74859171Y-101174061D01*
X74573457Y-101174061D02*
X74716314Y-101102632D01*
X74716314Y-101102632D02*
X74787742Y-101031204D01*
X74787742Y-101031204D02*
X74859171Y-100888346D01*
X74859171Y-100888346D02*
X74859171Y-100745489D01*
X73859171Y-100245490D02*
X74859171Y-100245490D01*
X75359171Y-100245490D02*
X75287742Y-100316918D01*
X75287742Y-100316918D02*
X75216314Y-100245490D01*
X75216314Y-100245490D02*
X75287742Y-100174061D01*
X75287742Y-100174061D02*
X75359171Y-100245490D01*
X75359171Y-100245490D02*
X75216314Y-100245490D01*
X74859171Y-99531204D02*
X73359171Y-99531204D01*
X74787742Y-99531204D02*
X74859171Y-99388347D01*
X74859171Y-99388347D02*
X74859171Y-99102632D01*
X74859171Y-99102632D02*
X74787742Y-98959775D01*
X74787742Y-98959775D02*
X74716314Y-98888347D01*
X74716314Y-98888347D02*
X74573457Y-98816918D01*
X74573457Y-98816918D02*
X74144885Y-98816918D01*
X74144885Y-98816918D02*
X74002028Y-98888347D01*
X74002028Y-98888347D02*
X73930600Y-98959775D01*
X73930600Y-98959775D02*
X73859171Y-99102632D01*
X73859171Y-99102632D02*
X73859171Y-99388347D01*
X73859171Y-99388347D02*
X73930600Y-99531204D01*
D12*
D13*
X23587419Y-101266666D02*
X24301704Y-101266666D01*
X24301704Y-101266666D02*
X24444561Y-101219047D01*
X24444561Y-101219047D02*
X24539800Y-101123809D01*
X24539800Y-101123809D02*
X24587419Y-100980952D01*
X24587419Y-100980952D02*
X24587419Y-100885714D01*
X23587419Y-102171428D02*
X23587419Y-101980952D01*
X23587419Y-101980952D02*
X23635038Y-101885714D01*
X23635038Y-101885714D02*
X23682657Y-101838095D01*
X23682657Y-101838095D02*
X23825514Y-101742857D01*
X23825514Y-101742857D02*
X24015990Y-101695238D01*
X24015990Y-101695238D02*
X24396942Y-101695238D01*
X24396942Y-101695238D02*
X24492180Y-101742857D01*
X24492180Y-101742857D02*
X24539800Y-101790476D01*
X24539800Y-101790476D02*
X24587419Y-101885714D01*
X24587419Y-101885714D02*
X24587419Y-102076190D01*
X24587419Y-102076190D02*
X24539800Y-102171428D01*
X24539800Y-102171428D02*
X24492180Y-102219047D01*
X24492180Y-102219047D02*
X24396942Y-102266666D01*
X24396942Y-102266666D02*
X24158847Y-102266666D01*
X24158847Y-102266666D02*
X24063609Y-102219047D01*
X24063609Y-102219047D02*
X24015990Y-102171428D01*
X24015990Y-102171428D02*
X23968371Y-102076190D01*
X23968371Y-102076190D02*
X23968371Y-101885714D01*
X23968371Y-101885714D02*
X24015990Y-101790476D01*
X24015990Y-101790476D02*
X24063609Y-101742857D01*
X24063609Y-101742857D02*
X24158847Y-101695238D01*
D14*
D15*
X25098333Y-66994819D02*
X25098333Y-67709104D01*
X25098333Y-67709104D02*
X25145952Y-67851961D01*
X25145952Y-67851961D02*
X25241190Y-67947200D01*
X25241190Y-67947200D02*
X25384047Y-67994819D01*
X25384047Y-67994819D02*
X25479285Y-67994819D01*
X24193571Y-67328152D02*
X24193571Y-67994819D01*
X24431666Y-66947200D02*
X24669761Y-67661485D01*
X24669761Y-67661485D02*
X24050714Y-67661485D01*
D14*
D15*
X54101904Y-48222819D02*
X54101904Y-49032342D01*
X54101904Y-49032342D02*
X54054285Y-49127580D01*
X54054285Y-49127580D02*
X54006666Y-49175200D01*
X54006666Y-49175200D02*
X53911428Y-49222819D01*
X53911428Y-49222819D02*
X53720952Y-49222819D01*
X53720952Y-49222819D02*
X53625714Y-49175200D01*
X53625714Y-49175200D02*
X53578095Y-49127580D01*
X53578095Y-49127580D02*
X53530476Y-49032342D01*
X53530476Y-49032342D02*
X53530476Y-48222819D01*
X52530476Y-49222819D02*
X53101904Y-49222819D01*
X52816190Y-49222819D02*
X52816190Y-48222819D01*
X52816190Y-48222819D02*
X52911428Y-48365676D01*
X52911428Y-48365676D02*
X53006666Y-48460914D01*
X53006666Y-48460914D02*
X53101904Y-48508533D01*
D12*
D13*
X72056666Y-123732580D02*
X72056666Y-123018295D01*
X72056666Y-123018295D02*
X72009047Y-122875438D01*
X72009047Y-122875438D02*
X71913809Y-122780200D01*
X71913809Y-122780200D02*
X71770952Y-122732580D01*
X71770952Y-122732580D02*
X71675714Y-122732580D01*
X73009047Y-123732580D02*
X72532857Y-123732580D01*
X72532857Y-123732580D02*
X72485238Y-123256390D01*
X72485238Y-123256390D02*
X72532857Y-123304009D01*
X72532857Y-123304009D02*
X72628095Y-123351628D01*
X72628095Y-123351628D02*
X72866190Y-123351628D01*
X72866190Y-123351628D02*
X72961428Y-123304009D01*
X72961428Y-123304009D02*
X73009047Y-123256390D01*
X73009047Y-123256390D02*
X73056666Y-123161152D01*
X73056666Y-123161152D02*
X73056666Y-122923057D01*
X73056666Y-122923057D02*
X73009047Y-122827819D01*
X73009047Y-122827819D02*
X72961428Y-122780200D01*
X72961428Y-122780200D02*
X72866190Y-122732580D01*
X72866190Y-122732580D02*
X72628095Y-122732580D01*
X72628095Y-122732580D02*
X72532857Y-122780200D01*
X72532857Y-122780200D02*
X72485238Y-122827819D01*
D16*
%TO.P,Q2,1,E*%
%TO.N,Net-(Q1-B)*%
X26670000Y-82550000D03*
D17*
%TO.P,Q2,2,B*%
%TO.N,Net-(Q2-B)*%
X25400000Y-83820000D03*
%TO.P,Q2,3,C*%
%TO.N,Net-(J5-Pin_2)*%
X26670000Y-85090000D03*
%TD*%
D18*
%TO.P,D5,1,K*%
%TO.N,Net-(D5-K)*%
X40640000Y-106680000D03*
D19*
%TO.P,D5,2,A*%
%TO.N,Net-(D5-A)*%
X27940000Y-106680000D03*
%TD*%
D20*
%TO.P,F1,1*%
%TO.N,Net-(J1-Pin_2)*%
X46860000Y-116840000D03*
%TO.P,F1,2*%
%TO.N,Net-(D5-A)*%
X24260000Y-116840000D03*
%TD*%
D18*
%TO.P,C1,1*%
%TO.N,Net-(D5-K)*%
X60880000Y-109220000D03*
D21*
%TO.P,C1,2*%
%TO.N,GNDD*%
X55880000Y-109220000D03*
%TD*%
D22*
%TO.P,C3,1*%
%TO.N,+5V*%
X52150000Y-120650000D03*
%TO.P,C3,2*%
%TO.N,GNDD*%
X57150000Y-120650000D03*
%TD*%
D23*
%TO.P,J3,1,Pin_1*%
%TO.N,GNDD*%
X50720000Y-39065000D03*
D24*
%TO.P,J3,2,Pin_2*%
%TO.N,Net-(J3-Pin_2)*%
X45720000Y-39065000D03*
%TD*%
D25*
%TO.P,U2,1,VI*%
%TO.N,Net-(D5-K)*%
X60960000Y-127000000D03*
D26*
%TO.P,U2,2,GND*%
%TO.N,GNDD*%
X58420000Y-127000000D03*
%TO.P,U2,3,VO*%
%TO.N,+5V*%
X55880000Y-127000000D03*
%TD*%
D16*
%TO.P,Q1,1,E*%
%TO.N,GNDD*%
X35560000Y-82550000D03*
D17*
%TO.P,Q1,2,B*%
%TO.N,Net-(Q1-B)*%
X34290000Y-83820000D03*
%TO.P,Q1,3,C*%
%TO.N,Net-(J5-Pin_2)*%
X35560000Y-85090000D03*
%TD*%
D23*
%TO.P,J1,1,Pin_1*%
%TO.N,GNDD*%
X62150000Y-39065000D03*
D24*
%TO.P,J1,2,Pin_2*%
%TO.N,Net-(J1-Pin_2)*%
X57150000Y-39065000D03*
%TD*%
D22*
%TO.P,C2,1*%
%TO.N,Net-(D5-K)*%
X66040000Y-120650000D03*
%TO.P,C2,2*%
%TO.N,GNDD*%
X61040000Y-120650000D03*
%TD*%
%TO.P,R4,1*%
%TO.N,Net-(Q2-B)*%
X25400000Y-76200000D03*
D27*
%TO.P,R4,2*%
%TO.N,Net-(U1-IO4)*%
X35560000Y-76200000D03*
%TD*%
D23*
%TO.P,J2,1,Pin_1*%
%TO.N,GNDD*%
X39290000Y-39065000D03*
D24*
%TO.P,J2,2,Pin_2*%
%TO.N,Net-(J2-Pin_2)*%
X34290000Y-39065000D03*
%TD*%
D28*
%TO.P,J6,1,Pin_1*%
%TO.N,Net-(D5-K)*%
X27440000Y-95060000D03*
%TO.P,J6,2,Pin_2*%
%TO.N,Net-(J5-Pin_2)*%
X27440000Y-99060000D03*
%TD*%
D29*
%TO.P,J4,1,Pin_1*%
%TO.N,GNDD*%
X32340000Y-64770000D03*
D30*
%TO.P,J4,2,Pin_2*%
%TO.N,Echo*%
X32340000Y-62230000D03*
%TO.P,J4,3,Pin_3*%
%TO.N,Trig*%
X32340000Y-59690000D03*
%TO.P,J4,4,Pin_4*%
%TO.N,+3.3V*%
X32340000Y-57150000D03*
%TD*%
D31*
%TO.P,U1,1,IO4*%
%TO.N,Net-(U1-IO4)*%
X64770000Y-72390000D03*
%TO.P,U1,2,IO2*%
%TO.N,unconnected-(U1-IO2-Pad2)*%
X64770000Y-69850000D03*
%TO.P,U1,3,IO14*%
%TO.N,Net-(J3-Pin_2)*%
X64770000Y-67310000D03*
%TO.P,U1,4,IO15*%
%TO.N,unconnected-(U1-IO15-Pad4)*%
X64770000Y-64770000D03*
%TO.P,U1,5,IO13*%
%TO.N,Net-(J2-Pin_2)*%
X64770000Y-62230000D03*
%TO.P,U1,6,IO12*%
%TO.N,unconnected-(U1-IO12-Pad6)*%
X64770000Y-59690000D03*
%TO.P,U1,7,GND_1*%
%TO.N,GNDD*%
X64770000Y-57150000D03*
D29*
%TO.P,U1,8,5V*%
%TO.N,+5V*%
X64770000Y-54610000D03*
%TO.P,U1,9,3V3*%
%TO.N,+3.3V*%
X41910000Y-54610000D03*
D31*
%TO.P,U1,10,IO16*%
%TO.N,unconnected-(U1-IO16-Pad10)*%
X41910000Y-57150000D03*
%TO.P,U1,11,IO0*%
%TO.N,unconnected-(U1-IO0-Pad11)*%
X41910000Y-59690000D03*
%TO.P,U1,12,GND_2*%
%TO.N,GNDD*%
X41910000Y-62230000D03*
%TO.P,U1,13,VCC*%
%TO.N,unconnected-(U1-VCC-Pad13)*%
X41910000Y-64770000D03*
%TO.P,U1,14,U0R*%
%TO.N,Echo*%
X41910000Y-67310000D03*
%TO.P,U1,15,U0T*%
%TO.N,Trig*%
X41910000Y-69850000D03*
%TO.P,U1,16,GND_3*%
%TO.N,GNDD*%
X41910000Y-72390000D03*
%TD*%
D32*
%TO.P,J5,1,Pin_1*%
%TO.N,Net-(D5-K)*%
X72390000Y-120420000D03*
%TO.P,J5,2,Pin_2*%
%TO.N,Net-(J5-Pin_2)*%
X76390000Y-120420000D03*
%TD*%
D33*
%TO.N,GNDD*%
X55880000Y-62230000D03*
X55880000Y-72390000D03*
X55880000Y-57150000D03*
%TO.N,+5V*%
X52070000Y-54610000D03*
%TD*%
D34*
%TO.N,GNDD*%
X35560000Y-82550000D02*
X41910000Y-82550000D01*
D35*
X50800000Y-34290000D02*
X62070000Y-34290000D01*
D34*
X41910000Y-62230000D02*
X38100000Y-62230000D01*
X41910000Y-82550000D02*
X41910000Y-72390000D01*
D35*
X57150000Y-110490000D02*
X57150000Y-120650000D01*
X62230000Y-48260000D02*
X55880000Y-48260000D01*
X50720000Y-39065000D02*
X50720000Y-34370000D01*
X62150000Y-34370000D02*
X62150000Y-39065000D01*
X58420000Y-127000000D02*
X58420000Y-120650000D01*
X62150000Y-39065000D02*
X62150000Y-48180000D01*
X39290000Y-39065000D02*
X39290000Y-34370000D01*
X39370000Y-34290000D02*
X50800000Y-34290000D01*
D34*
X38100000Y-64770000D02*
X32340000Y-64770000D01*
D35*
X55880000Y-109220000D02*
X57150000Y-110490000D01*
X50720000Y-34370000D02*
X50800000Y-34290000D01*
X39290000Y-34370000D02*
X39370000Y-34290000D01*
D34*
X38100000Y-62230000D02*
X38100000Y-64770000D01*
D35*
X62070000Y-34290000D02*
X62150000Y-34370000D01*
X58420000Y-120650000D02*
X61040000Y-120650000D01*
X55880000Y-48260000D02*
X55880000Y-109220000D01*
X62150000Y-48180000D02*
X62230000Y-48260000D01*
%TO.N,+5V*%
X52230000Y-127000000D02*
X52070000Y-126840000D01*
X55880000Y-127000000D02*
X52230000Y-127000000D01*
X52070000Y-126840000D02*
X52070000Y-120730000D01*
X52070000Y-120730000D02*
X52150000Y-120650000D01*
X52150000Y-120650000D02*
X52150000Y-54690000D01*
D36*
X52150000Y-54690000D02*
X52070000Y-54610000D01*
D35*
%TO.N,Net-(D5-K)*%
X40640000Y-106680000D02*
X40640000Y-95060000D01*
X66040000Y-127000000D02*
X66040000Y-121920000D01*
X60960000Y-127000000D02*
X66040000Y-127000000D01*
X66040000Y-121920000D02*
X66040000Y-120650000D01*
X66040000Y-120650000D02*
X71120000Y-120650000D01*
X66040000Y-109220000D02*
X60880000Y-109220000D01*
X40640000Y-95060000D02*
X29210000Y-95060000D01*
X66040000Y-120650000D02*
X66040000Y-109220000D01*
%TO.N,Net-(D5-A)*%
X27940000Y-106680000D02*
X24260000Y-106680000D01*
X24260000Y-106680000D02*
X24260000Y-116840000D01*
%TO.N,Net-(J1-Pin_2)*%
X46990000Y-44450000D02*
X57150000Y-44450000D01*
X57150000Y-44450000D02*
X57150000Y-39065000D01*
D36*
X46860000Y-44580000D02*
X46990000Y-44450000D01*
D35*
X46860000Y-116840000D02*
X46860000Y-44580000D01*
D34*
%TO.N,+3.3V*%
X41910000Y-54610000D02*
X32340000Y-54610000D01*
X32340000Y-54610000D02*
X32340000Y-57150000D01*
D37*
%TO.N,Trig*%
X41910000Y-69850000D02*
X27940000Y-69850000D01*
X27940000Y-69850000D02*
X27940000Y-59690000D01*
X27940000Y-59690000D02*
X32340000Y-59690000D01*
%TO.N,Echo*%
X29845000Y-62230000D02*
X32340000Y-62230000D01*
X41910000Y-67310000D02*
X29845000Y-67310000D01*
X29845000Y-67310000D02*
X29845000Y-62230000D01*
%TO.N,Net-(Q1-B)*%
X31750000Y-82550000D02*
X31750000Y-83820000D01*
X33020000Y-83820000D02*
X34290000Y-83820000D01*
X26670000Y-82550000D02*
X31750000Y-82550000D01*
X31750000Y-83820000D02*
X33020000Y-83820000D01*
%TO.N,Net-(Q2-B)*%
X25400000Y-76200000D02*
X24130000Y-76200000D01*
X24130000Y-76200000D02*
X24130000Y-83820000D01*
X24130000Y-83820000D02*
X25400000Y-83820000D01*
D34*
%TO.N,Net-(J5-Pin_2)*%
X76390000Y-120420000D02*
X76390000Y-123000000D01*
X76390000Y-123000000D02*
X73660000Y-125730000D01*
X69850000Y-129540000D02*
X34290000Y-129540000D01*
X35560000Y-86360000D02*
X26670000Y-86360000D01*
X69850000Y-125730000D02*
X69850000Y-129540000D01*
X34290000Y-129540000D02*
X34290000Y-99060000D01*
X73660000Y-125730000D02*
X69850000Y-125730000D01*
X27440000Y-99060000D02*
X24130000Y-99060000D01*
X24130000Y-86360000D02*
X26670000Y-86360000D01*
X35560000Y-85090000D02*
X35560000Y-86360000D01*
X26670000Y-86360000D02*
X26670000Y-85090000D01*
X24130000Y-99060000D02*
X24130000Y-86360000D01*
X34290000Y-99060000D02*
X27440000Y-99060000D01*
%TD*%
M02*
